<?xml version="1.0" encoding="UTF-8" standalone="no"?>
<!DOCTYPE svg PUBLIC "-//W3C//DTD SVG 20010904//EN"
				  "http://www.w3.org/TR/2001/REC-SVG-20010904/DTD/svg10.dtd">

<svg xmlns="http://www.w3.org/2000/svg"
	width="6.82667in" height="6.82667in"
	viewBox="0 0 100 100">
<polygon 
	points="
		40,05 60,05 60,40 
		95,40 95,60 60,60 
		60,95 40,95 40,60
		05,60 05,40 40,40" 
	style="fill:white;stroke:grey;stroke-width:3 
	fill-opacity: 1.0;"
/>

<circle 
	cx="50%" cy="50%" r="50" 
	fill="red" stroke="white" stroke-width="1"
	fill-opacity="0.1"
/>
<!-- <path id="Selection"
	fill="none" stroke="white" stroke-width="50"
	d="M 816.00,101.00
		C 816.00,101.00 1233.00,101.00 1233.00,101.00
			1233.00,101.00 1233.00,815.00 1233.00,815.00
			1233.00,815.00 1947.00,815.00 1947.00,815.00
			1947.00,815.00 1947.00,1232.00 1947.00,1232.00
			1947.00,1232.00 1233.00,1232.00 1233.00,1232.00
			1233.00,1232.00 1233.00,1947.00 1233.00,1947.00
			1233.00,1947.00 816.00,1947.00 816.00,1947.00
			816.00,1947.00 816.00,1232.00 816.00,1232.00
			816.00,1232.00 101.00,1232.00 101.00,1232.00
			101.00,1232.00 101.00,815.00 101.00,815.00
			101.00,815.00 816.00,815.00 816.00,815.00
			816.00,815.00 816.00,101.00 816.00,101.00 Z" 
/> -->
</svg>
